<?xml version="1.0" encoding="utf-8"?>
<!-- Generator: Adobe Illustrator 27.4.0, SVG Export Plug-In . SVG Version: 6.00 Build 0)  -->
<svg version="1.1" id="Layer_1" xmlns="http://www.w3.org/2000/svg" xmlns:xlink="http://www.w3.org/1999/xlink" x="0px" y="0px"
	 viewBox="0 0 1088 293.8" style="enable-background:new 0 0 1088 293.8;" xml:space="preserve">
<style type="text/css">
	.st0{fill:#B08400;}
</style>
<path d="M223.1,174.3l1.3,0.8l-0.8,0.5c-6.3,1.5-5.8,2.3-8,2.8c0,0.8-7,3.3-8.5,3.8c-0.5,0.5-0.8,1-1.8,1.3
	c-1.8,1.8-13.8,5.1-17.1,5.1c-0.8,0-0.5-0.5-1-0.8l-0.8,0.3c0.8,4.8,0.9,8.3,0,13.4c-0.4,2.1-13.9,38.7-18.2,39.9
	c-2,0.3-2.8,0.3-3.9,0.2c-2.3-0.4-3.5-1.2-4.3-2c-0.7-0.7-1.1-1.1-1.8-2.5c-0.9-1.5-1.3-3.4-1.7-5.5c-0.5-2.4-0.5-3.9-0.5-6.8
	c0-2.7,0.3-6.4,0.7-9.4c0.6-5.1,2.8-10.1,4.6-15.2c1.8-5.1,4.5-9.4,7-14c4.2-7.6,9.1-13.4,18-14.5c1,0,2.8-0.3,4-0.3
	c1.8,0,3.3,0.3,3.3,1.3c0,0.5-0.3,1-1,1.8c-1.8,0.5-3,0.5-4.3,0.5h-1.3c-0.5-0.3-1-0.3-1.5-0.3c-5,0-9.8,11.5-13.4,24.4
	c-3.3,11.9-5.4,25.1-5.4,31.4c0,2.6,0.3,4.1,1,4.1c3.8,0,13.8-28.6,13.8-45.9v-2.3c0-0.5,0.8-1,0.8-1.8c-0.3-0.8-1-1.8-1-2
	c0-0.8,0.8-1.3,1.5-1.3c0.8,0,1.5,0.2,2,0.8c5.8-1,16.3-5.3,22.3-7.1c6.3-1.8,9.8-2.6,15.3-2.6h2.5l-2.3,0.8l2,0.5L223.1,174.3z
	 M215.1,176.8c0,0,1-0.2,0.8-0.5C215.6,176.3,215.1,176.3,215.1,176.8z M217.1,175.6c-0.2,0.3-0.5,0.5-0.5,1
	C216.8,176.6,217.1,176.3,217.1,175.6z M217.3,174.5h1c0.3,0,0.5-0.2,0.5-0.8C218.6,173.8,217.3,173.8,217.3,174.5z M217.8,176.3
	c0.5-0.5,3.5-1,2.8-1c-0.8,0-1.5,0-2.3,0c-0.2,0-0.2,0.2-0.8,0.2L217.8,176.3z M219.6,173.3c0.3,0.3,0.5,0.3,1,0.3
	c0.5,0,0.8,0,1.3-0.3H219.6z"/>
<path d="M230.5,236c0-12.5,2.8-29.6,2.8-38c0-3.1-0.3-4.8-1.3-5.1c-12.5,14.5-19.8,29.1-27.6,44.9l-2.5,5.4c0,0.8-0.2,1-0.2,1
	c-0.5,2.3-2.8,5.6-4.8,5.6c-0.5,0-0.8-0.3-1.3-0.5l-2.5-1c-0.8-0.2-2-1.8-2-2c0-0.5-0.3-1-0.5-1.8c0-16.6,4.5-45.6,8-61.4
	c1-3.8,2.8-6.1,6-6.9c0.8-0.2,1.5-0.2,2.5-0.2c2,0,4.3,0.5,5,1.5c0.5,0.8,0.8,2,0.8,3.1c0,3.3-1.8,5.9-2.5,8.9l-0.5,1
	c-1.2,6.6-2.8,14.5-4.5,22.7c4-6.1,13.3-25.5,25.6-30.1c0.8-0.2,1.5-0.5,2.5-0.5c10.3,0,11.5,11,11.5,18.9c0,12.5-2.3,29.8-2.3,36.2
	c0,1.5,0.3,2.3,0.5,2.3c3.8,0,21.8-19.9,36.9-42.8c0.8-1.3,1.8-1.8,2.5-1.8c2.5,0,4.3,5.3,4.3,8.2c0,0.8,0,1.3-0.2,1.5
	c-6,11-32.6,47.9-45.7,47.9C231,252.8,230.5,243.9,230.5,236z"/>
<path d="M309.6,251c0,0.3-0.8-1.5-0.8-1.3L308,250l-0.3-4.3c-0.8,1-0.8,2.3-0.8,4.1c-1.3-0.5-1.8-4.3-2-4.6
	c-0.5-0.5-0.5,4.6-0.8,4.6c-0.2,0-0.5-1.3-0.5-3.3c0-5.9,1-18.1,1.3-22.4c0-1.8,0.2-4.1,0.2-5.9c3-34.2,7.5-74.4,11.8-107.8h-1.5
	c-2.3,0-5-0.3-6-0.3c-4.5,0-13.1-6.1-13.1-7.9c0-0.3,0.3-0.5,0.8-0.5c7.5-0.8,13.6-1,21.3-1.3c1.5-6.6,4-29.3,6.3-38.2
	c2.3-5.4,1.5-6.6,5.8-6.6c1.5,0,2.5-0.3,3.3-0.3c1,0,1.5,0.5,1.5,2.8v1c0,0.5,0,1.3-0.5,2.3c0.2,1.3,0.5,3.1,0.5,4.6
	c0,1.3-0.3,2.3-0.3,3.6c0,11.5-2,21.9-2.8,29.1c7.3,0,16.1,0.5,20.8,4.8c-1.3,0-2.8,2.3-4.3,2.3c0,0,0.5,0.3,0.8,1
	c-3.5,0-15.8,0.8-18.6,1.3c-5.5,48.7-11,96.1-17.3,142c-0.3,1-0.5,2-1,2.6c-0.5-0.5-0.5-1-0.5-1.8v-1.3c0,0.3-0.5-0.8-0.5-0.5
	c0,2.3-0.5,3.1-0.8,3.1c-0.5,0-1-1.5-1-3.6C309.8,248.2,309.8,249.8,309.6,251z"/>
<path d="M354.4,175.8c-3.5,10.2-5.5,19.6-5.5,27c0,8.1,2.3,17.8,11.8,17.8c22.3,0,48.7-38.7,60.2-55.6c0.5-0.5,1-0.8,1.5-0.8
	c1.3,0,1.8,1.5,1.8,3.1c0,0.5-0.3,0.8-0.3,1.3v6.9c0,0.5,0,0.8-0.3,1.5c0,1-0.8,2.3-0.8,3.3c-13.8,21.4-37.4,48.4-59.7,48.4
	c-16.6,0-26.1-12.8-26.1-29.1c0-24.2,18.8-54.8,35.4-54.8h1c1.5,0,8.5,5.6,9.3,7.9c0.5,1.5,0.5,2.8,0.5,4.1
	c0,11.7-14,18.9-27.6,18.9H354.4z M357.2,170.7c7,0,18.6-12,18.6-17.1c0-1-0.5-1.8-1.5-2C370,151.6,361.7,161,357.2,170.7z"/>
<path d="M452.3,207.4c0-12.5,2.8-29.6,2.8-38c0-3.1-0.3-4.8-1.3-5.1c-12.5,14.5-19.8,29.1-27.6,44.9l-2.5,5.4c0,0.8-0.2,1-0.2,1
	c-0.5,2.3-2.8,5.6-4.8,5.6c-0.5,0-0.8-0.3-1.3-0.5l-2.5-1c-0.8-0.2-2-1.8-2-2c0-0.5-0.3-1-0.5-1.8c0-16.6,4.5-45.6,8-61.4
	c1-3.8,2.8-6.1,6-6.9c0.8-0.2,1.5-0.2,2.5-0.2c2,0,4.3,0.5,5,1.5c0.5,0.8,0.8,2,0.8,3.1c0,3.3-1.8,5.9-2.5,8.9l-0.5,1
	c-1.2,6.6-2.8,14.5-4.5,22.7c4-6.1,13.3-25.5,25.6-30.1c0.8-0.2,1.5-0.5,2.5-0.5c10.3,0,11.5,11,11.5,18.9c0,12.5-2.3,29.8-2.3,36.2
	c0,1.5,0.3,2.3,0.5,2.3c3.8,0,21.8-19.9,36.9-42.8c0.8-1.3,1.8-1.8,2.5-1.8c2.5,0,4.3,5.3,4.3,8.2c0,0.8,0,1.3-0.2,1.5
	c-6,11-32.6,47.9-45.7,47.9C452.8,224.3,452.3,215.3,452.3,207.4z"/>
<path d="M502.7,251c0,0.3-0.8-1.5-0.8-1.3l-0.8,0.2l-0.3-4.3c-0.8,1-0.8,2.3-0.8,4.1c-1.3-0.5-1.8-4.3-2-4.6
	c-0.5-0.5-0.5,4.6-0.8,4.6c-0.2,0-0.5-1.3-0.5-3.3c0-5.9,1-18.1,1.3-22.4c0-1.8,0.2-4.1,0.2-5.9c3-34.2,7.5-74.4,11.8-107.8h-1.5
	c-2.3,0-5-0.3-6-0.3c-4.5,0-13.1-6.1-13.1-7.9c0-0.3,0.3-0.5,0.8-0.5c7.5-0.8,13.6-1,21.3-1.3c1.5-6.6,4-29.3,6.3-38.2
	c2.3-5.4,1.5-6.6,5.8-6.6c1.5,0,2.5-0.3,3.3-0.3c1,0,1.5,0.5,1.5,2.8v1c0,0.5,0,1.3-0.5,2.3c0.2,1.3,0.5,3.1,0.5,4.6
	c0,1.3-0.3,2.3-0.3,3.6c0,11.5-2,21.9-2.8,29.1c7.3,0,16.1,0.5,20.8,4.8c-1.3,0-2.8,2.3-4.3,2.3c0,0,0.5,0.3,0.8,1
	c-3.5,0-15.8,0.8-18.6,1.3c-5.5,48.7-11,96.1-17.3,142c-0.3,1-0.5,2-1,2.6c-0.5-0.5-0.5-1-0.5-1.8v-1.3c0,0.3-0.5-0.8-0.5-0.5
	c0,2.3-0.5,3.1-0.8,3.1c-0.5,0-1-1.5-1-3.6C502.9,248.2,502.9,249.8,502.7,251z"/>
<path class="st0" d="M619.2,37.9c-30.3,0-48.3,17.9-48.3,45v3.9c2.6,42.7,28.7,79.5,28.7,114.7c0,1.6-0.3,3.3-0.3,4.9
	c-1.6,21.5-19.6,37.5-45.4,37.5c-1.9,0-3.9,0-5.8-0.3c-20.9-1.6-21.2-12.4-21.2-20.5v-1.6c0.6-1.3,0.3-2,1.3-2
	c1.9,1,2.2,2.6,3.5,2.6c0.3,0,0.6,0,1.3-0.3c7.1,4.9,14.8,7.2,21.9,7.2c13.5,0,25.1-8.8,25.1-25.4c0-1.9,0-3.9-0.3-6.2
	c-4.5-31.3-21.3-54.1-26.4-86.1c-1-5.9-1.3-11.4-1.3-16.6c0-44,30.9-70.4,68.6-70.4c7.4,0,25.1,2,25.1,12.4c0,3.3-2.6,5.2-6.1,5.2
	c-2.6,0-5.1-0.6-7.7-2.9C627.2,38.2,623,37.9,619.2,37.9z"/>
<path d="M737.1,185.9c0.2-0.8,0.7-1.5,0.7-2.3c-0.9,1.3-1.1,2-1.1,3.3c1.4,0,1.6-2.3,3-2.3c-0.5,1.5-0.7,4.6-2.3,5.6
	c-0.5,0.5-0.2,0.5-0.5,1c-1.4,3.6-2.3,4.3-3,5.9c-4.2,7.6-18.7,32.4-28.4,42.3c-3.5,3.6-7.6,4.9-11.3,4.9c-6,0-11.1-3.3-12.9-6.9
	c-1.4-2.6-1.8-7.1-1.8-12.2c0-9.4,1.6-20.9,1.6-25.5c-6.7,9.9-18.7,37.5-26.1,37.5c-0.7,0-1.4,0-1.8-0.5c-9.2-3.8-8.1-36.2-8.5-45.9
	c-8.3,14.8-14.5,28.3-22.9,45.4c-2.1,4.1-3.7,5.1-5.1,5.1c-0.9,0-1.8-0.5-3-0.8c-4.6-1.5-5.8-3.3-6-4.6c-0.9-5.3-1.4-10.2-1.4-14.8
	c0-13,3.2-24.5,6.2-39.8c1.4-6.6,4.6-18.4,12.2-18.4c3.2,0,5.3,3.6,5.3,7.9c0,2.8-0.9,6.1-2.8,8.7c-3.9,11.7-6.5,23.7-7.2,36.2
	c5.3-9.9,13.2-29.6,21.7-39c1.9-2,4.4-3.3,6.7-3.3c3.2,0,6.5,2.6,7.2,9.4c1.2,10.5,0.9,26.3,2.1,38.7c0.5,0,1.2-1.8,1.4-2
	c6-9.4,18-39.5,27.5-39.5c0.5,0,0.7,0.3,1.2,0.3c2.8,0.8,3.9,3.6,4.6,7.1c0.9,3.1,1.4,7.6,1.4,12.5c0,10.7-1.6,23.7-1.6,30.6
	c0,3,0.5,4.8,1.2,4.8c5.8,0,26.3-32.4,39.5-56.1c0,0.5,0.7,0.5,0.7,0.5c0.7,0.3,1.4-2,1.4-2c0.2,0,1.2-1,2.1-1c0.7,0,0.7-0.5,1.6-1
	c0,0.3,0.5,1,0.9,1c0.5,0,0.5,0.5,0.5,1c0.2,0.3,0.5,0.3,0.7,0.3c0.5,0,0.7-0.3,0.9-0.3C740.5,179.8,738.2,184.9,737.1,185.9z
	 M725.5,205.8c-0.5,0.5-0.9,1-0.9,1.3c0.2,0,0.5,0,0.5-0.5C725.5,206.5,725.5,206.3,725.5,205.8z M725.1,203.2
	c0.5-0.2,0.7-0.2,0.7-1.3C725.1,201.9,725.1,203,725.1,203.2z M731.5,195.3c0-0.3-0.2-0.5-0.7-0.8c-0.2,1-1.4,1.8-1.6,3.1
	c-0.5,0.5-0.7,1.5-0.7,1.5c0,0.8-1.2,2.3-1.4,2.6c0.9-0.8,1.4-1.3,1.9-2.8c-0.2,0,0.5-0.8,0.5-0.8c0.2,0,0.5-0.3,0.5-0.5
	c0,0,1.2-1,0.9-1C731.3,196.1,731.5,195.6,731.5,195.3z M736.8,187.7l-2.1,4.1c0-1.3,0.7-2.8,0.9-3.6c-0.7,1-1.6,2.8-1.6,3.3
	l0.7,1.8c0.2-1.5,1.9-2.8,1.9-4.8L736.8,187.7z"/>
<path d="M798.5,217.1c-3.3,4.8-1.3,1.3-5.5,5.9c-0.8,0.8-2,1.3-3,2.8c-2.5,3-4,2.8-7.8,4.6c-2,0.5-3.3,0.5-5.3,0.5
	c-1.5,0.5-2.8,0.8-3.8,0.8c-3.8,0-5.8-2.8-8-7.7c-4-8.4-3-40-3.5-49.2c-2,10.2-15.3,32.6-18.6,32.4c-1.8,1-3,1.3-4.8,2.3
	c-0.8,0.2-1.8,0.5-2.5,0.5c-4.3,0-7.5-4.3-8-8.4c-0.3-1.3-0.3-2.3-0.3-3.6c0-8.9,3.8-20.1,8.8-27.8c4.3-5.6,9.3-12.2,18.6-16.1
	c2-1,4.8-1.5,7.8-1.5c1.8,0,10.5,0.8,10.5,3.3c0,0.3-0.3,0.8-0.3,0.8c-0.5,0.8-1.5,1-2.5,1c0.5,0.8,1.5,0.8,1.5,1.5
	c-0.3,1.5-0.3,1.8-0.3,2.8c0,0.8,0.8,1,0.8,3.6c1,4.1,1,12.5,1,21.7v18.4c0,9.7,0.3,17.1,1.5,17.1c8.5,0,35.9-41.8,40.9-48.4
	c1.8-2.3,2.8-4.3,4-4.3c1,0,2.8,4.1,3,4.8c0.3,1,0.3,2,0.3,2.8c0,1.8-0.5,3.6-1.3,5.6l-1,2.3c-5.5,8.9-12.5,18.4-18.1,26
	c-1,1-0.8,1.8-2,2c0.3,0-1,1.3-1,1c0-1.8,1.8-2.3,2.5-3.6c0.3-0.8,1-1.3,1.3-2c-0.3,0-0.3-0.8-0.3-0.8l-1,1.3c0,0.2,0,0.5-0.5,0.5
	l-2.3,3.3c-1.3,1.3-2.3,3-3.3,4.8c0.3-0.2,1-1.3,1.5-1.3l1.5-1L798.5,217.1z M759.4,164.9c1.3-2,2.5-4.6,3.3-5.6
	c-11.8,5.6-21.3,30.6-24.8,44.4C746.1,189.8,751.4,178.6,759.4,164.9z M753.4,182.2c0-0.3-0.2-0.5-0.5-0.5c-0.3,0.3-1.8,1.8-1.8,2.6
	c0,0.3,0.3,0.5,0.5,0.5C751.9,184.5,753.4,183,753.4,182.2z M752.6,185.5c0-0.3,0-0.5-0.5-0.5c0,0.5-0.8,1-0.8,1.5
	C751.9,186,752.6,185.5,752.6,185.5z M751.6,182.5c0.3,0,1-1,1.3-1.8c-0.3,0.3-0.8,0.3-1,0.3C751.9,180.7,751.6,181.2,751.6,182.5z
	 M754.4,183.7c0-0.8-0.3-1-0.3-1c-0.3,0-0.5,0.8-0.8,1.5C753.4,184.2,753.9,183.7,754.4,183.7z M755.1,183.5c-0.5,0.3-1.3,1-1.5,1.3
	C753.6,185,754.9,184,755.1,183.5z M755.4,174.5c-0.3,0.3-0.5,0.5-0.8,0.5c-0.5,0.5,0,0.5-0.8,1.3c0,0,0,0.5,0.3,0.8L755.4,174.5z
	 M755.6,178.4c0,0,0-0.8,0.3-1c-0.5,0.2-1.8,2-1.3,1.5C754.9,178.9,755.1,178.6,755.6,178.4z M754.6,185c0.8,0,1.3-0.5,1.5-1.3
	C755.4,183.7,754.4,185,754.6,185z M757.9,171c0.2,0,0.5,0.3,0.8,0.3c0.3,0,0.5,0,0.5-0.5c0,0.3-0.2-0.5-0.2-0.8
	C758.6,170.2,758.4,170.7,757.9,171z M800.1,203.9c0-0.3-0.3-0.5-0.3-0.8c-2.8,1.3-4.8,7.7-4.8,7.7c0.8,0,1.8-2,2.5-2.8
	c0.5-1.3,1-1,1-1.8C798.5,205.1,800.1,204.9,800.1,203.9z M796.5,211.3c-0.5,0.5-1,2.3-0.8,1.8C796.3,212.5,796.5,212.8,796.5,211.3
	z M796.8,215.3c0.5-0.5,1.2-1.8,1.2-1.8c0-0.8,0.8-1.5,0.8-3.1c-0.5,1.5-1.8,2-2.5,4.1c0,1-0.3,0.8-0.3,2L796.8,215.3z M798.3,210
	c1-0.5,1.3-1.3,1.8-2.1c0.3-0.2,0.5-0.5,0.5-0.8c0-0.3-0.2-0.5-0.5-0.8c-1,1-2.5,2.6-3.3,3.8c0.5,0.5,0.5,0.8,0.5,0.8
	c0.3,0,1-1.8,1.3-1.8L798.3,210z M800.3,200.6c-1.3,0.3-2,2.8-1.8,2.8C799.3,203.4,800.1,200.8,800.3,200.6z M801.1,199
	c0,0.3,0.3,0.8,0.3,1c0,0.3,3-2.6,2.8-2.3h-1.3c-0.5,0.5-0.8,0.5-0.8,1.3H801.1z"/>
<path d="M895,164.1l0.5,1.3l1.2,1.5c-0.2-0.3-0.2,1.3-0.2,1.3c-0.3,0.5-0.3,0.8-0.3,1.3v1.3c0,0.5,0,1.3-0.5,2.3l-2,3.6
	c0-0.2-1.8,4.3-3.3,4.8v0.8c-0.3,0.2-0.5,0.5-1,0.5c0,0.3,0.5,0,0.5,0.8h-0.8c-0.8,3.6-6.5,8.7-6.3,8.7c1.8,0,4.5-4.1,4.5-4.1
	c0,1.3-1.3,2-1.3,3.3c-1,0-1.5,1.3-1.8,2.3c-0.3,0.5-0.3,0.8-0.3,1c0.3-0.5,1.3-0.8,1.3-1.8c1-0.8,3-3.6,3.3-3.3
	c0,0.5,0.5-1.3,0.5-1.5c0-0.3,2.5-1.8,2.5-2.3l-0.3-0.2h0.3c0.3-0.8,2-3.3,3-3.3l-0.8,1.3c-0.8,1.3-0.8,2-2.3,2v0.2
	c0,0,0,0.3,0.3,0.5c-1,2-2.3,1.8-2.3,3.8c0,1.3-2.3,2.8-2.3,2.6c0-0.5,1-0.5,1.2-1c-1,0-1.5,0.5-1.5,0.5c0,1.3-1.8,2.8-2,3.6
	c-0.8,1.8-0.5,0-1.2,2.6c-0.8-0.5-1.3-0.8-1.3-0.8c-0.5,0-0.3,1-0.8,1.5c0,0.2-0.2,0.5-0.2,0.8c0,0.2-1.3,1.5-1.3,1.8
	c0,0.2,0.8,0,1-0.3c-3.5,4.3-8.8,6.6-13.3,10.2c0,0,5.5-2.8,6-3.1l-1.3,2l-0.8,0.3c0,0.5-12.8,12.2-23.8,12.2
	c-4.5,0-16.8-6.6-16.8-16.3c0-1.3,0.3-2.8,0.8-4.1c5.3-15.8,19.6-37.7,19.6-44.6c0-0.8-0.3-1.3-0.5-1.5c-4-1.5-7.3-3.8-9.5-5.1
	c-10.8,19.1-17.8,28.8-25.3,39.3c-1,1.5-2.5,2-3.8,2c-2.5,0-5-2.3-5-5.6c0-0.8,0.5-1,0.5-1.8c6.5-9.2,17.1-26,24.6-38.7
	c-4.5-3.3-6.5-8.9-6.5-14.8c0-12.5,8.5-26.5,19.3-26.5c6.5,0,11,4.1,11,11c0,8.9-6.3,20.9-8.5,25.2c-0.8,1.5,12.5,2.5,13.8,13.5v2
	c0,12-11.3,31.9-17.6,44.9c-1.8,3.6-3,6.6-3.5,8.9c-0.3,0.5-0.3,1.3-0.3,1.8c0,2.3,1.3,4.1,3.8,4.1s6.3-1.5,11.5-5.3
	C869.7,201.3,890.7,169.7,895,164.1z M838.8,136.8c4-6.6,7.8-14.5,8.5-22.9c-5.3,2.8-9,11.7-9,18.9
	C838.3,134.3,838.5,135.6,838.8,136.8z M884.7,192.1l-0.8,0.5c0,0.2-0.5,1.3-2,2C883.2,194.2,884,193.4,884.7,192.1z M894.3,178.6
	c0,0.2,0,0.5-0.3,0.8c-0.3,0.8-0.8,1.5-1,1.5s-1.8,1.3-1.8,1c0-0.3,1.5-2.3,2.5-3.1C894,178.6,894.3,178.6,894.3,178.6z"/>
<path d="M892.7,251c0,0.3-0.8-1.5-0.8-1.3l-0.8,0.2l-0.3-4.3c-0.8,1-0.8,2.3-0.8,4.1c-1.3-0.5-1.8-4.3-2-4.6
	c-0.5-0.5-0.5,4.6-0.8,4.6c-0.2,0-0.5-1.3-0.5-3.3c0-5.9,1-18.1,1.3-22.4c0-1.8,0.2-4.1,0.2-5.9c3-34.2,7.5-74.4,11.8-107.8h-1.5
	c-2.3,0-5-0.3-6-0.3c-4.5,0-13.1-6.1-13.1-7.9c0-0.3,0.3-0.5,0.8-0.5c7.5-0.8,13.6-1,21.3-1.3c1.5-6.6,4-29.3,6.3-38.2
	c2.3-5.4,1.5-6.6,5.8-6.6c1.5,0,2.5-0.3,3.3-0.3c1,0,1.5,0.5,1.5,2.8v1c0,0.5,0,1.3-0.5,2.3c0.2,1.3,0.5,3.1,0.5,4.6
	c0,1.3-0.3,2.3-0.3,3.6c0,11.5-2,21.9-2.8,29.1c7.3,0,16.1,0.5,20.8,4.8c-1.3,0-2.8,2.3-4.3,2.3c0,0,0.5,0.3,0.8,1
	c-3.5,0-15.8,0.8-18.6,1.3c-5.5,48.7-11,96.1-17.3,142c-0.3,1-0.5,2-1,2.6c-0.5-0.5-0.5-1-0.5-1.8v-1.3c0,0.3-0.5-0.8-0.5-0.5
	c0,2.3-0.5,3.1-0.8,3.1c-0.5,0-1-1.5-1-3.6C893,248.2,893,249.8,892.7,251z"/>
<path d="M933.6,212.8c3.3,0,4.3,3.1,4.3,6.4c0,2.6-1.3,6.6-3.3,8.1c-1.3,0.5-2.8,0.8-4.5,0.8c-2.8,0-5.8-0.8-7.3-3
	c-1.8-0.8-2.5-2.3-2.5-3.8c0-2.3,1.5-5.1,3-6.6c2.8-1.8,5.8-1.8,9.3-1.8H933.6z"/>
<path d="M968.5,203.9v2.3c0,4.1,0.8,6.4,2.5,6.9c0.5,0.3,1.3,0.3,1.8,0.3c13.8,0,45.2-46.9,47.9-50c0.8-1,1.5-1.5,2.3-1.5
	c2.3,0,5,3.3,5,6.6c0,1-0.2,2-1,3.1c-10.5,16.3-27.1,41-43.2,47.7c-4.8,2-8.5,3-12,3c-12.3,0-16.8-12-16.8-26v-3.6
	c0.8-14.5,8.5-32.6,14.6-40.5c1-1.5,3.3-2.3,5.3-2.3c2.3,0,4,1,4,2.6c0,0.3,0,0.8-0.2,1.3C977.5,160.5,968.5,184,968.5,203.9z
	 M987,132.5c-3.8,0-7.8-6.9-7.8-6.9c0-3.6,8-5.9,10-5.9c2.3,0,3.8,1.5,3.8,5.9C993.1,129.7,990,132.5,987,132.5z"/>
<path d="M1073.6,155.4l1.3,0.8l-0.8,0.5c-6.3,1.5-5.8,2.3-8,2.8c0,0.8-7,3.3-8.5,3.8c-0.5,0.5-0.8,1-1.8,1.3
	c-1.8,1.8-13.8,5.1-17.1,5.1c-0.8,0-0.5-0.5-1-0.8l-0.8,0.3c0.8,4.8,1,9.7,1,14.8c0,8.2-1,16.1-2.8,21.7c-0.3,1-2.3,6.6-4.5,8.4
	c-3.3,4.8-0.3,3.1-10.5,9.2c-1.3,0.2-2.3,0.5-3.3,0.5c-4.8,0-8-3.1-9.5-6.1c-2-3.3-2.8-8.1-2.8-13.5c0-20.1,9.8-48.9,32.4-51.5
	c1,0,2.8-0.3,4-0.3c1.8,0,3.3,0.3,3.3,1.3c0,0.5-0.3,1-1,1.8c-1.7,0.5-3,0.5-4.3,0.5h-1.3c-0.5-0.3-1-0.3-1.5-0.3
	c-9.5,0-18.8,42.6-18.8,55.8c0,2.6,0.2,4.1,1,4.1c3.8,0,13.8-28.6,13.8-45.9v-2.3c0-0.5,0.8-1,0.8-1.8c-0.2-0.8-1-1.8-1-2
	c0-0.8,0.8-1.3,1.5-1.3s1.5,0.2,2,0.8c5.8-1,16.3-5.3,22.3-7.1c6.3-1.8,9.8-2.6,15.3-2.6h2.5l-2.3,0.8l2,0.5L1073.6,155.4z
	 M1065.6,158c0,0,1-0.2,0.8-0.5C1066.1,157.5,1065.6,157.5,1065.6,158z M1067.6,156.7c-0.2,0.3-0.5,0.5-0.5,1
	C1067.3,157.7,1067.6,157.5,1067.6,156.7z M1067.8,155.7h1c0.3,0,0.5-0.2,0.5-0.8C1069.1,154.9,1067.8,154.9,1067.8,155.7z
	 M1068.3,157.5c0.5-0.5,3.5-1,2.8-1c-0.8,0-1.5,0-2.3,0c-0.2,0-0.2,0.2-0.8,0.2L1068.3,157.5z M1070.1,154.4c0.2,0.3,0.5,0.3,1,0.3
	c0.5,0,0.8,0,1.3-0.3H1070.1z"/>
<g>
	<path class="st0" d="M164.1,79.6c-4.8,19.5-10.4,34.6-16.7,45.2c-2.9,5-5.8,7.5-8.6,7.5c-1.1,0-2.5-0.2-4.1-0.8
		c-7.6-2.3-11.5-5-11.5-8.2c0-1.6,1.1-2.7,3.2-3.1c8.8-13.2,14.1-29.1,15.7-47.6c-5.5-4.9-10.8-7.3-15.7-7.3
		c-10.5-0.1-22.8,9.1-37.1,27.5c-13.2,17.2-24.6,37.6-34.2,61.2c-10.1,24.6-14.9,45.1-14.5,61.5c0.1,9.5,3,16.6,8.6,21.3
		c4.1,3.4,8.8,5.1,14,5.1c3,0,6.5-0.6,10.4-1.8c9.6-3,20.8-8.8,33.5-17.4c12.1-8.2,22.1-16.6,30.2-25.1c2.5-2.7,4-6.1,4.5-10.3
		c0.3-2.2,1.3-3.3,3-3.3c1.4,0,2.5,0.9,3.2,2.7c3.6,9,5.4,15.3,5.4,18.8c0,3.3-1.4,6.4-4.1,9.3c-1.8,1.8-6.1,5.3-12.8,10.4
		c-21.3,15.9-39.6,25.8-54.9,29.7c-4.7,1.2-9,1.8-13,1.8c-8.2,0-14.5-2.8-18.8-8.3c-19.6-7.3-29.4-18.4-29.4-33.5
		c0-24.2,6.4-50.2,19.1-78c11-24.1,24.5-45.3,40.6-63.6c15.5-17.5,28-26.6,37.7-27.3c3.5-0.3,7.6,1.2,12.2,4.3
		c0.6,0.4,5.3,4.2,14,11.3c0.5-4,1.9-6,4.1-6c2.4,0,6.5,2.2,12.2,6.6c3.6,2.8,5.4,5.5,5.4,8.1C165.8,71.8,165.2,75,164.1,79.6z"/>
</g>
</svg>
